<svg width="165" height="45" viewBox="0 0 165 45" fill="none" xmlns="http://www.w3.org/2000/svg">
<path d="M48.25 15C50.13 15 51.74 15.47 53.08 16.41C54.44 17.33 55.47 18.59 56.17 20.19C56.89 21.77 57.25 23.54 57.25 25.5C57.25 27.46 56.89 29.24 56.17 30.84C55.47 32.42 54.44 33.68 53.08 34.62C51.74 35.54 50.13 36 48.25 36H41.08C40.56 36 40.12 35.83 39.76 35.49C39.42 35.13 39.25 34.69 39.25 34.17V16.83C39.25 16.31 39.42 15.88 39.76 15.54C40.12 15.18 40.56 15 41.08 15H48.25ZM47.95 32.55C49.75 32.55 51.1 31.89 52 30.57C52.9 29.23 53.35 27.54 53.35 25.5C53.35 23.46 52.89 21.78 51.97 20.46C51.07 19.12 49.73 18.45 47.95 18.45H43V32.55H47.95ZM63.7853 34.17C63.7853 34.69 63.6153 35.13 63.2753 35.49C62.9353 35.83 62.5053 36 61.9853 36C61.4653 36 61.0353 35.83 60.6953 35.49C60.3553 35.13 60.1853 34.69 60.1853 34.17V21.78C60.1853 21.26 60.3553 20.83 60.6953 20.49C61.0353 20.13 61.4653 19.95 61.9853 19.95C62.5053 19.95 62.9353 20.13 63.2753 20.49C63.6153 20.83 63.7853 21.26 63.7853 21.78V34.17ZM61.9553 18C61.2753 18 60.7953 17.89 60.5153 17.67C60.2353 17.45 60.0953 17.06 60.0953 16.5V15.93C60.0953 15.37 60.2453 14.98 60.5453 14.76C60.8453 14.54 61.3253 14.43 61.9853 14.43C62.6853 14.43 63.1753 14.54 63.4553 14.76C63.7353 14.98 63.8753 15.37 63.8753 15.93V16.5C63.8753 17.08 63.7253 17.48 63.4253 17.7C63.1453 17.9 62.6553 18 61.9553 18ZM81.8852 27.6C81.8652 28.08 81.6752 28.47 81.3152 28.77C80.9552 29.07 80.5352 29.22 80.0552 29.22H70.1552C70.3952 30.4 70.9452 31.33 71.8052 32.01C72.6652 32.67 73.6352 33 74.7152 33C75.5352 33 76.1752 32.93 76.6352 32.79C77.0952 32.63 77.4552 32.47 77.7152 32.31C77.9952 32.13 78.1852 32.01 78.2852 31.95C78.6452 31.77 78.9852 31.68 79.3052 31.68C79.7252 31.68 80.0852 31.83 80.3852 32.13C80.6852 32.43 80.8352 32.78 80.8352 33.18C80.8352 33.72 80.5552 34.21 79.9952 34.65C79.4352 35.11 78.6852 35.5 77.7452 35.82C76.8052 36.14 75.8552 36.3 74.8952 36.3C73.2152 36.3 71.7452 35.95 70.4852 35.25C69.2452 34.55 68.2852 33.59 67.6052 32.37C66.9252 31.13 66.5852 29.74 66.5852 28.2C66.5852 26.48 66.9452 24.97 67.6652 23.67C68.3852 22.37 69.3352 21.38 70.5152 20.7C71.6952 20 72.9552 19.65 74.2952 19.65C75.6152 19.65 76.8552 20.01 78.0152 20.73C79.1952 21.45 80.1352 22.42 80.8352 23.64C81.5352 24.86 81.8852 26.18 81.8852 27.6ZM74.2952 22.95C71.9752 22.95 70.6052 24.04 70.1852 26.22H78.0452V26.01C77.9652 25.17 77.5552 24.45 76.8152 23.85C76.0752 23.25 75.2352 22.95 74.2952 22.95ZM92.6275 32.61C92.9075 32.61 93.1575 32.75 93.3775 33.03C93.6175 33.29 93.7375 33.64 93.7375 34.08C93.7375 34.62 93.4375 35.08 92.8375 35.46C92.2575 35.82 91.5975 36 90.8575 36C89.6175 36 88.5675 35.74 87.7075 35.22C86.8675 34.68 86.4475 33.55 86.4475 31.83V23.55H85.0675C84.5875 23.55 84.1875 23.39 83.8675 23.07C83.5475 22.75 83.3875 22.35 83.3875 21.87C83.3875 21.41 83.5475 21.03 83.8675 20.73C84.1875 20.41 84.5875 20.25 85.0675 20.25H86.4475V18.33C86.4475 17.81 86.6175 17.38 86.9575 17.04C87.3175 16.68 87.7575 16.5 88.2775 16.5C88.7775 16.5 89.1975 16.68 89.5375 17.04C89.8775 17.38 90.0475 17.81 90.0475 18.33V20.25H92.1775C92.6575 20.25 93.0575 20.41 93.3775 20.73C93.6975 21.05 93.8575 21.45 93.8575 21.93C93.8575 22.39 93.6975 22.78 93.3775 23.1C93.0575 23.4 92.6575 23.55 92.1775 23.55H90.0475V31.68C90.0475 32.1 90.1575 32.41 90.3775 32.61C90.5975 32.79 90.8975 32.88 91.2775 32.88C91.4375 32.88 91.6575 32.84 91.9375 32.76C92.1775 32.66 92.4075 32.61 92.6275 32.61ZM112.943 24.66C113.463 24.66 113.893 24.84 114.233 25.2C114.573 25.54 114.743 25.97 114.743 26.49V32.85C114.743 33.55 114.433 34.09 113.813 34.47C111.853 35.69 109.703 36.3 107.363 36.3C105.383 36.3 103.553 35.82 101.873 34.86C100.193 33.88 98.8629 32.57 97.8829 30.93C96.9029 29.27 96.4129 27.46 96.4129 25.5C96.4129 23.54 96.9029 21.74 97.8829 20.1C98.8629 18.44 100.193 17.13 101.873 16.17C103.553 15.19 105.383 14.7 107.363 14.7C109.343 14.7 111.063 15.1 112.523 15.9C112.823 16.06 113.043 16.27 113.183 16.53C113.343 16.79 113.423 17.07 113.423 17.37C113.423 17.87 113.253 18.31 112.913 18.69C112.593 19.05 112.193 19.23 111.713 19.23C111.413 19.23 111.083 19.15 110.723 18.99C109.643 18.53 108.523 18.3 107.363 18.3C106.083 18.3 104.903 18.63 103.823 19.29C102.743 19.93 101.883 20.8 101.243 21.9C100.623 23 100.313 24.2 100.313 25.5C100.313 26.8 100.623 28 101.243 29.1C101.883 30.2 102.743 31.08 103.823 31.74C104.903 32.38 106.083 32.7 107.363 32.7C107.923 32.7 108.523 32.65 109.163 32.55C109.803 32.45 110.363 32.32 110.843 32.16V28.26H108.023C107.503 28.26 107.063 28.09 106.703 27.75C106.363 27.41 106.193 26.98 106.193 26.46C106.193 25.94 106.363 25.51 106.703 25.17C107.063 24.83 107.503 24.66 108.023 24.66H112.943ZM129.962 19.95C130.482 19.95 130.912 20.13 131.252 20.49C131.592 20.83 131.762 21.26 131.762 21.78V29.4C131.762 31.56 131.162 33.25 129.962 34.47C128.782 35.69 127.092 36.3 124.892 36.3C122.692 36.3 121.002 35.69 119.822 34.47C118.642 33.25 118.052 31.56 118.052 29.4V21.78C118.052 21.26 118.222 20.83 118.562 20.49C118.902 20.13 119.332 19.95 119.852 19.95C120.372 19.95 120.802 20.13 121.142 20.49C121.482 20.83 121.652 21.26 121.652 21.78V29.4C121.652 30.62 121.922 31.53 122.462 32.13C123.002 32.71 123.812 33 124.892 33C125.992 33 126.812 32.71 127.352 32.13C127.892 31.53 128.162 30.62 128.162 29.4V21.78C128.162 21.26 128.332 20.83 128.672 20.49C129.012 20.13 129.442 19.95 129.962 19.95ZM143.999 19.65C144.599 19.65 145.099 19.82 145.499 20.16C145.919 20.5 146.129 20.9 146.129 21.36C146.129 21.98 145.969 22.45 145.649 22.77C145.329 23.07 144.949 23.22 144.509 23.22C144.209 23.22 143.869 23.15 143.489 23.01C143.429 22.99 143.289 22.95 143.069 22.89C142.869 22.83 142.649 22.8 142.409 22.8C141.889 22.8 141.389 22.96 140.909 23.28C140.429 23.6 140.029 24.09 139.709 24.75C139.409 25.39 139.259 26.16 139.259 27.06V34.17C139.259 34.69 139.089 35.13 138.749 35.49C138.409 35.83 137.979 36 137.459 36C136.939 36 136.509 35.83 136.169 35.49C135.829 35.13 135.659 34.69 135.659 34.17V21.78C135.659 21.26 135.829 20.83 136.169 20.49C136.509 20.13 136.939 19.95 137.459 19.95C137.979 19.95 138.409 20.13 138.749 20.49C139.089 20.83 139.259 21.26 139.259 21.78V22.17C139.719 21.35 140.379 20.73 141.239 20.31C142.099 19.87 143.019 19.65 143.999 19.65ZM160.577 19.95C161.097 19.95 161.527 20.13 161.867 20.49C162.207 20.83 162.377 21.26 162.377 21.78V29.4C162.377 31.56 161.777 33.25 160.577 34.47C159.397 35.69 157.707 36.3 155.507 36.3C153.307 36.3 151.617 35.69 150.437 34.47C149.257 33.25 148.667 31.56 148.667 29.4V21.78C148.667 21.26 148.837 20.83 149.177 20.49C149.517 20.13 149.947 19.95 150.467 19.95C150.987 19.95 151.417 20.13 151.757 20.49C152.097 20.83 152.267 21.26 152.267 21.78V29.4C152.267 30.62 152.537 31.53 153.077 32.13C153.617 32.71 154.427 33 155.507 33C156.607 33 157.427 32.71 157.967 32.13C158.507 31.53 158.777 30.62 158.777 29.4V21.78C158.777 21.26 158.947 20.83 159.287 20.49C159.627 20.13 160.057 19.95 160.577 19.95Z" fill="white"/>
<path d="M33.7184 15.5288C32.8134 13.3259 31.3715 11.6196 29.5451 10.5808C29.1238 11.3498 28.6212 12.0761 28.045 12.7484C28.0483 12.7502 28.0516 12.7517 28.0549 12.7535C30.7746 14.2379 32.3565 18.0312 31.9016 21.9782C31.148 28.5174 29.0565 32.999 26.0121 34.5975C24.0329 35.6366 21.5646 35.4886 18.6754 34.1581L18.3932 34.0285H16.3125L16.0304 34.1581C13.1412 35.4888 10.6729 35.6366 8.69371 34.5975C5.6494 32.999 3.55802 28.5174 2.80421 21.9782C2.34934 18.0312 3.93125 14.2378 6.65095 12.7535C7.52702 12.2784 8.52049 12.0332 9.52933 12.0432C11.589 12.0432 13.9626 12.9595 16.5419 14.7697L16.6338 14.8345C16.6338 14.8345 20.3519 14.4052 21.8249 13.7702C26.2628 11.857 27.2421 8.81597 27.4158 8.40298C27.9277 7.19648 28.1836 5.90581 28.1686 4.60513C28.1537 3.30445 27.8682 2.0194 27.3287 0.823788L26.9812 0L26.0472 0.00891112C24.5701 0.0242829 23.1131 0.336169 21.7719 0.924091C20.4307 1.51201 19.2357 2.36267 18.2652 3.42022C17.2948 4.47776 16.5708 5.71827 16.141 7.0603C15.7112 8.40232 15.5851 9.8155 15.7712 11.2071C14.1588 10.3492 12.591 9.8021 11.089 9.57552C8.96107 9.25431 7.01019 9.56742 5.29059 10.506C3.40198 11.5368 1.91391 13.2736 0.987354 15.5286C0.144997 17.5787 -0.173552 19.9693 0.0903984 22.26C0.955618 29.7681 3.47373 34.8187 7.37259 36.8661C8.65367 37.541 10.0963 37.891 11.5613 37.8822C13.2321 37.8822 15.0274 37.4614 16.9338 36.6205H17.7724C21.389 38.2158 24.6045 38.2988 27.3332 36.8661C31.2319 34.8189 33.7504 29.7683 34.6156 22.26C34.8794 19.9695 34.5608 17.5789 33.7184 15.5288ZM23.1062 3.19729C23.7513 2.93357 24.4313 2.75467 25.1274 2.66555C25.4367 3.68101 25.5118 4.74784 25.3477 5.79336C25.1836 6.83888 24.7841 7.83853 24.1764 8.72422C23.5688 9.6099 22.7672 10.3608 21.8264 10.9258C20.8855 11.4908 19.8275 11.8566 18.7244 11.9983C18.2007 10.2762 18.3569 8.43187 19.1637 6.81143C19.9705 5.19099 21.3723 3.90587 23.1062 3.19729Z" fill="white"/>
</svg>
